::General::
Complete name: Se7en 1995 1080p BrRip x264 [Dual Audio] English-Hindi NimitMak SilverRG
Director: David Fincher
Format: MPEG-4
File size: 1.19 GiB
Duration: 2h 6mn
Overall Bitrate: 1347 Kbps
Language: Dual Audio [English-Hindi]
Sub Title: Embedded + .srt (Can Be Turned Off)
Encoded date: 2012-10-08
Writing application: MeGui
Writing library: x264 core 100 r1659 57b2e56
Encoder: NimitMak
Source: BrRip YIFY (Thanks),Audio (mjrocks91)



::IMDB INFO::
IMDB Link:http://www.imdb.com/title/tt0114369/
IMDB Rating:8.7/10
Release Date:22 September 1995 (USA)
Genre: Crime | Mystery | Thriller 
YouTube

::Video::
ID: 1
Format: AVC
Format/Info: Advanced Video Codec
Format profile: High@L4.0
Format settings, CABAC: Yes
Format settings, ReFrames: 3 frames
Codec ID: V_MPEG4/ISO/AVC
Nominal Bitrate: 1029 Kbps /25.0 Mbps(Max)
Width: 1920 pixels
Height: 800 pixels
Display aspect ratio: 2.40:1
Frame rate: 23.976 fps
Color space: YUV
Chroma subsampling: 4:2:0
Bit depth: 8 bits
Scan type: Progressive
Writing library: x264 core 100 r1659 57b2e56

::Audio #1::
ID: 2
Format : AAC
Format/Info: Advanced Audio Codec
Format profile: HE-AAC / LC
Codec ID: 40
Duration : h 6mn
Bit rate mode: Variable
Bit rate: 91.9 Kbps
Maximum bit rate: 109 Kbps
Channel(s): 2 channels
Channel positions: Front: L R
Sampling rate: 48.0 KHz / 24.0 KHz
Compression mode: Lossy
Stream size: 83.3 MiB (7%)
Title: English - NimitMak SilverRG
Language: English

::Audio #2::
ID : 3
Format: AC-3
Format/Info: Audio Coding 3
Mode extension: CM (complete main)
Codec ID: ac-3
Duration: 2h 6mn
Bit rate mode: Constant
Bit rate: 224 Kbps
Channel(s): 2 channels
Channel positions: Front: L R
Sampling rate: 44.1 KHz
Bit depth: 16 bits
Compression mode : ossy
Stream size: 203 MiB (17%)
Title: Hindi - NimitMak SilverRG
Language: Hindi

::Text #1::
ID: 4
Format: Timed text
Codec ID: tx3g
Duration: 2h 1mn
Bit rate mode : Variable
Bit rate: 52 bps
Stream size: 46.7 KiB (0%)
Title : English - NimitMak SilverRG
Language : English

Screens : 
 
http://www.shotpix.com/images/14144259935426537615.jpg